<svg xmlns="http://www.w3.org/2000/svg" viewBox="0 0 1359.15 655.43"><defs><style>.a{fill:#fff;}</style></defs><title>gr</title><path class="a" d="M771.41,210.64c-16.88,0-28.19,12-28.19,27.67s11.3,27.7,28.19,27.7,28.11-12,28.11-27.7S788.25,210.64,771.41,210.64Zm0,45c-9.67,0-15.32-6.43-15.32-17.29S761.74,221,771.41,221s15.25,6.54,15.25,17.29S781,255.59,771.41,255.59Z"/><path class="a" d="M834.41,247.3H841c15,0,21.79-7.55,21.79-18.37,0-10-6.54-17.7-21.79-17.7H821.84v54.18h12.57Zm0-26.66H841c6.32,0,9.22,3.35,9.22,8.29,0,5.62-2.68,8.89-9.22,8.89h-6.54Z"/><polygon class="a" points="920.54 255.74 898.3 255.74 898.3 242.84 915.33 242.84 915.33 233.54 898.3 233.54 898.3 220.9 920.54 220.9 920.54 211.23 885.66 211.23 885.66 265.41 920.54 265.41 920.54 255.74"/><path class="a" d="M983.31,263.33a4.83,4.83,0,0,0,4.39,2.08h6.55V211.23H983.16V239.9c0,1.75.11,3.72.3,5.8l-25.73-32.54c-1.37-1.67-2-1.93-4.16-1.93h-6.62v54.18H958v-29c0-1.6-.11-3.42-.26-5.32Z"/><path class="a" d="M773.45,336.89a10.66,10.66,0,0,0,3.68-3.27l16.06-21.9H782.27c-2.49,0-4.09.56-5.43,2.49l-12.2,17.7a4.59,4.59,0,0,1-4,1.75h-2V311.72H746V365.9h12.57V342.84h3c2.34,0,3.57.52,4.46,1.9l12.27,18.85c1,1.49,2,2.31,4.91,2.31h11.23l-16.36-25.14A9,9,0,0,0,773.45,336.89Z"/><path class="a" d="M854.64,340.39c0,1.75.11,3.72.3,5.8L829.2,313.65c-1.37-1.67-2-1.93-4.16-1.93h-6.62V365.9H829.5v-29c0-1.6-.11-3.42-.26-5.32l25.55,32.28a4.83,4.83,0,0,0,4.39,2.08h6.54V311.72H854.64Z"/><path class="a" d="M917.86,311.12c-16.88,0-28.19,12-28.19,27.67s11.3,27.7,28.19,27.7,28.11-12,28.11-27.7S934.71,311.12,917.86,311.12Zm0,45c-9.67,0-15.32-6.43-15.32-17.29s5.65-17.29,15.32-17.29,15.25,6.54,15.25,17.29S927.45,356.08,917.86,356.08Z"/><path class="a" d="M1028.76,311.72a4.14,4.14,0,0,0-4.09,2.71l-7.44,28.26c-.45,1.75-.86,3.72-1.26,5.91a53,53,0,0,0-1.64-5.91l-8.7-28.26a4,4,0,0,0-4.17-2.71h-3.72a4.28,4.28,0,0,0-4.09,2.71l-8.78,28.26c-.56,1.82-1.19,3.87-1.67,6.21a43.36,43.36,0,0,0-1.3-6.21l-7.44-28.26c-.45-1.64-2-2.71-4.16-2.71H959.74l16.73,54.18h11.38l10.34-33.58c.33-1,.74-2.3,1.08-3.68.34,1.38.74,2.64,1.08,3.68l10.19,33.58h11.38l16.73-54.18Z"/><polygon class="a" points="1073.91 311.72 1061.34 311.72 1061.34 365.9 1093.99 365.9 1093.99 355.86 1073.91 355.86 1073.91 311.72"/><polygon class="a" points="1120.7 365.9 1155.58 365.9 1155.58 356.23 1133.34 356.23 1133.34 343.33 1150.37 343.33 1150.37 334.03 1133.34 334.03 1133.34 321.39 1155.58 321.39 1155.58 311.72 1120.7 311.72 1120.7 365.9"/><path class="a" d="M1203,311.72h-21V365.9h21c16.85,0,28.11-11.45,28.11-27.11S1219.88,311.72,1203,311.72Zm0,44.51h-8.4V321.39h8.4c9.59,0,15.25,6.66,15.25,17.4S1212.63,356.23,1203,356.23Z"/><path class="a" d="M1278.6,321.5a20,20,0,0,1,11.82,3.38,4.43,4.43,0,0,0,2.31.74,3.41,3.41,0,0,0,2.83-1.67l3.64-5.54c-4.35-4.16-11.08-7.29-20.15-7.29-17.48,0-28.63,11.49-28.63,27.67,0,15.88,11.83,27.7,27.67,27.7,8.85,0,15.21-1.75,20.75-5.8V337.82h-19.26v6.92a2.24,2.24,0,0,0,2.53,2.23h5.36v8.22a20.61,20.61,0,0,1-8.4,1.64c-9.07,0-15.77-6.58-15.77-18C1263.28,328.42,1269.23,321.5,1278.6,321.5Z"/><polygon class="a" points="1359.15 321.39 1359.15 311.72 1324.27 311.72 1324.27 365.9 1359.15 365.9 1359.15 356.23 1336.92 356.23 1336.92 343.33 1353.95 343.33 1353.95 334.03 1336.92 334.03 1336.92 321.39 1359.15 321.39"/><path class="a" d="M775.2,444.85a1.33,1.33,0,0,0,.43,1,1.56,1.56,0,0,0,1.13.41H785V458q-1.42.75-2.83,1.32a23.15,23.15,0,0,1-3,1,25.16,25.16,0,0,1-3.4.61,35.25,35.25,0,0,1-4,.2,20.77,20.77,0,0,1-7.88-1.45,17.41,17.41,0,0,1-6.17-4.2,19.07,19.07,0,0,1-4-6.71,26.41,26.41,0,0,1-1.43-9,26,26,0,0,1,1.38-8.72,18.58,18.58,0,0,1,3.94-6.62,17.25,17.25,0,0,1,6.21-4.2,21.63,21.63,0,0,1,8.14-1.47,25.7,25.7,0,0,1,5.34.48,22.6,22.6,0,0,1,3.91,1.17,17.77,17.77,0,0,1,2.81,1.43q1.15.74,2.08,1.26a2.64,2.64,0,0,0,1.3.41,1.88,1.88,0,0,0,1.64-1l2-3.27a26.29,26.29,0,0,0-3.68-2.81,23.56,23.56,0,0,0-4.29-2.12,27.62,27.62,0,0,0-5-1.34,34.91,34.91,0,0,0-5.88-.46,30.76,30.76,0,0,0-11.29,2,23.91,23.91,0,0,0-14.06,14.17,31,31,0,0,0-1.92,11.12,30.2,30.2,0,0,0,2,11,25.3,25.3,0,0,0,5.45,8.61,24.47,24.47,0,0,0,8.33,5.58,27.7,27.7,0,0,0,10.64,2,49.67,49.67,0,0,0,6.14-.35,33.8,33.8,0,0,0,5.3-1.08,28.46,28.46,0,0,0,4.65-1.8,29.67,29.67,0,0,0,4.18-2.53V440.76H775.2Z"/><path class="a" d="M847.17,443a20.4,20.4,0,0,0,5.52-2.08,15.45,15.45,0,0,0,4.13-3.33,13.94,13.94,0,0,0,2.58-4.41,15.32,15.32,0,0,0,.89-5.28,15.61,15.61,0,0,0-1.15-6.12,11.87,11.87,0,0,0-3.55-4.67,16.7,16.7,0,0,0-6.08-3,32.9,32.9,0,0,0-8.74-1H825.71v53.29h7.18V444.14h5.47a5,5,0,0,1,2.23.39,4,4,0,0,1,1.38,1.28l13.83,19a3.15,3.15,0,0,0,2.9,1.52h6.4l-15.55-21.16A7.61,7.61,0,0,0,847.17,443Zm-6.73-4.05h-7.55V418.78h7.88q6.21,0,9.35,2.42t3.14,7.18a10.88,10.88,0,0,1-.82,4.28A9,9,0,0,1,850,436a11.3,11.3,0,0,1-4,2.16A18.37,18.37,0,0,1,840.43,438.9Z"/><polygon class="a" points="895.18 466.38 928.02 466.38 928.02 460.51 902.43 460.51 902.43 442.32 923.15 442.32 923.15 436.67 902.43 436.67 902.43 418.97 928.02 418.97 928.02 413.09 895.18 413.09 895.18 466.38"/><polygon class="a" points="960.71 466.38 993.55 466.38 993.55 460.51 967.96 460.51 967.96 442.32 988.67 442.32 988.67 436.67 967.96 436.67 967.96 418.97 993.55 418.97 993.55 413.09 960.71 413.09 960.71 466.38"/><path class="a" d="M1063.8,455.38a1.89,1.89,0,0,0-1.23.56,23.52,23.52,0,0,1-2.81,2.18,14.83,14.83,0,0,1-3,1.51,17.62,17.62,0,0,1-3.51.87,29.66,29.66,0,0,1-4.28.28,18.7,18.7,0,0,1-7.29-1.41,16.45,16.45,0,0,1-5.86-4.11,19.6,19.6,0,0,1-3.9-6.6,25.7,25.7,0,0,1-1.43-8.89,25.24,25.24,0,0,1,1.43-8.74,19,19,0,0,1,4-6.62,17.56,17.56,0,0,1,6.12-4.18,20.3,20.3,0,0,1,7.83-1.47,22.29,22.29,0,0,1,4.2.35,19.64,19.64,0,0,1,3.2.87,15.39,15.39,0,0,1,2.38,1.12q1,.6,1.75,1.12l1.28.87a1.88,1.88,0,0,0,1,.35,1.64,1.64,0,0,0,1-.24,2.56,2.56,0,0,0,.59-.61l2.34-3.31a24.28,24.28,0,0,0-17.7-6.77,28.8,28.8,0,0,0-10.88,2,24.53,24.53,0,0,0-8.46,5.6,25.26,25.26,0,0,0-5.49,8.63,30.25,30.25,0,0,0-2,11,32.16,32.16,0,0,0,1.82,11,25.2,25.2,0,0,0,5.13,8.61,22.9,22.9,0,0,0,8,5.58,26.49,26.49,0,0,0,10.45,2,27.07,27.07,0,0,0,11.25-2.12,22.81,22.81,0,0,0,7.94-5.91l-2.83-3.09A1.49,1.49,0,0,0,1063.8,455.38Z"/><polygon class="a" points="1099.5 466.38 1132.34 466.38 1132.34 460.51 1106.75 460.51 1106.75 442.32 1127.47 442.32 1127.47 436.67 1106.75 436.67 1106.75 418.97 1132.34 418.97 1132.34 413.09 1099.5 413.09 1099.5 466.38"/><rect class="a" x="445.93" y="83.36" width="173.94" height="21.01" transform="translate(138.81 464.66) rotate(-53.25)"/><rect class="a" x="424.98" y="95.41" width="83.79" height="21.01" transform="translate(163.94 476.62) rotate(-63.53)"/><rect class="a" x="364.96" y="55.68" width="131.74" height="21.02" transform="translate(247.2 461.5) rotate(-73.82)"/><rect class="a" x="337.23" y="69.9" width="83.76" height="21.02" transform="translate(260.09 449.23) rotate(-84.09)"/><rect class="a" x="322.35" y="27.83" width="21.01" height="93.85" transform="translate(-4.74 25.65) rotate(-4.38)"/><polygon class="a" points="308.75 125.21 292.49 63.07 272.16 68.39 288.43 130.53 308.75 125.21"/><rect class="a" x="242.9" y="99.81" width="21.01" height="43.06" transform="translate(-27.53 118.28) rotate(-24.96)"/><rect class="a" x="213.9" y="144.75" width="21.01" height="16.88" transform="translate(-47.27 157.37) rotate(-35.2)"/><rect class="a" x="164.89" y="126.21" width="21.02" height="69.06" transform="translate(-62.18 173.3) rotate(-45.53)"/><polygon class="a" points="181.61 205.91 105.36 153.62 93.55 171 169.8 223.29 181.61 205.91"/><rect class="a" x="122.54" y="211.22" width="21.01" height="52.52" transform="translate(-137.99 262.81) rotate(-66.08)"/><rect class="a" x="63.08" y="194.06" width="21.01" height="146.34" transform="translate(-203.45 275.83) rotate(-76.38)"/><rect class="a" x="75.46" y="266.17" width="21.02" height="106.29" transform="translate(-237.8 386.56) rotate(-86.66)"/><rect class="a" x="37" y="356.52" width="103.61" height="21.01" transform="translate(-43.77 13.45) rotate(-6.95)"/><rect class="a" x="124.69" y="391.34" width="24.09" height="21.01" transform="translate(-112.95 58.58) rotate(-17.24)"/><rect class="a" x="80.6" y="443.4" width="87.17" height="21.01" transform="translate(-195.72 108.77) rotate(-27.53)"/><rect class="a" x="99.42" y="484.38" width="93.98" height="21.01" transform="translate(-272.64 193.64) rotate(-37.81)"/><rect class="a" x="133.27" y="517.76" width="91.61" height="21.01" transform="translate(-333.69 308.7) rotate(-48.09)"/><rect class="a" x="208.16" y="524.65" width="42.29" height="21.01" transform="translate(-346.64 449.92) rotate(-58.39)"/><rect class="a" x="218.59" y="562.11" width="82.33" height="21.01" transform="translate(-368.12 606.22) rotate(-68.66)"/><rect class="a" x="266.56" y="571.56" width="75.55" height="21.01" transform="translate(-325.27 769.23) rotate(-78.95)"/><rect class="a" x="323.11" y="564.72" width="52.55" height="21.01" transform="translate(-230.47 916.88) rotate(-89.23)"/><rect class="a" x="385.89" y="545.34" width="21.01" height="101.61" transform="translate(-93.18 73.81) rotate(-9.52)"/><rect class="a" x="425.02" y="534.53" width="21.01" height="61.38" transform="translate(-165.76 181.02) rotate(-19.81)"/><polygon class="a" points="450.83 525.45 527.04 655.43 545.22 644.89 469.01 514.91 450.83 525.45"/><polygon class="a" points="483.67 505.32 495.29 517.24 510.48 502.71 498.86 490.79 483.67 505.32"/><rect class="a" x="533.85" y="458.29" width="21.02" height="67.73" transform="translate(-181.34 601.29) rotate(-50.67)"/><rect class="a" x="555.99" y="423.22" width="21.01" height="61.21" transform="translate(-105.29 728.73) rotate(-60.95)"/><polygon class="a" points="577.78 422.62 584.52 402.71 558.68 393.94 551.93 413.84 577.78 422.62"/><rect class="a" x="594.34" y="331.7" width="21.01" height="81.87" transform="translate(147.15 915.97) rotate(-81.53)"/><rect class="a" x="566.59" y="316.97" width="51.99" height="21.02" transform="translate(-10.01 18.81) rotate(-1.8)"/><rect class="a" x="561.25" y="272.81" width="65.71" height="21.01" transform="translate(-46.2 130.87) rotate(-12.1)"/><rect class="a" x="548.94" y="234.51" width="44.83" height="21.01" transform="translate(-50.25 236.11) rotate(-22.39)"/><rect class="a" x="522.61" y="173.83" width="130.35" height="21.02" transform="matrix(0.84, -0.54, 0.54, 0.84, -6.56, 346.28)"/><rect class="a" x="506.37" y="170.97" width="22.65" height="21.01" transform="translate(15.11 401.35) rotate(-42.95)"/><path class="a" d="M388.12,332.51a10.17,10.17,0,0,0,3.82-2.33,8.87,8.87,0,0,0,2.16-3.48,13.35,13.35,0,0,0,.67-4.3,9,9,0,0,0-3-7.2q-3-2.59-9.29-2.59H376v20.74h6.53A16.68,16.68,0,0,0,388.12,332.51Z"/><path class="a" d="M374,418.69l15.81,43.93,14.49-5.22-15.82-43.94,23.4,40.42,13.33-7.72-23.4-40.4,30.23,35.58,11.74-10L413.6,395.76l36.1,29.62,9.77-11.91-36.12-29.64,40.84,22.72,7.49-13.46-40.8-22.7,44.19,15.05,5-14.58-44.21-15.06,46.2,6.93,2.29-15.23-46.21-6.93,46.7-1.43-.47-15.39-46.67,1.43,45.67-9.73-3.21-15.06-45.69,9.74,43.22-17.73-5.85-14.25L428.6,295.85l39.32-25.14-8.3-13L420.26,282.9l34.23-31.78L444,239.83l-34.23,31.78,28-37.37L425.47,225l-28,37.37,20.89-41.77-13.78-6.89-20.89,41.77,13.1-44.83L382,206.33l-13.1,44.83,4.89-46.44-15.32-1.61-5.06,48.08L349.64,203l-15.36,1.2,3.64,46.54L326,205.59l-14.89,3.92L323,254.68l-19.76-42.32-14,6.52,19.76,42.31-27-38.1L269.52,232l27,38.12-33.37-32.69-10.78,11,33.35,32.67-38.65-26.2-8.64,12.75,38.67,26.21L234.38,275l-6.23,14.09,42.72,18.88-45.4-11-3.61,15,45.39,11-46.61-2.68-.88,15.38,46.63,2.68L220,344l1.88,15.29,46.37-5.69-44.61,13.87,4.57,14.71,44.59-13.87-41.4,21.6,7.13,13.66,41.4-21.6-36.88,28.64,9.45,12.16,36.88-28.65-31.18,34.77,11.47,10.28,31.17-34.76-24.47,39.77,13.12,8.07L314,412.45,297,456l14.35,5.6,17-43.51-8.95,45.84,15.12,3L343.45,421l-.62,46.69,15.4.21.62-46.72,7.72,46.08,15.19-2.55Zm-68.56-73.38a21.23,21.23,0,0,0,4.25,7.3,18,18,0,0,0,6.43,4.54,20.81,20.81,0,0,0,8.14,1.56,27.61,27.61,0,0,0,6-.58,29.06,29.06,0,0,0,4.9-1.54V346h-6.91a3.35,3.35,0,0,1-2.4-.82,2.72,2.72,0,0,1-.86-2.06v-8.93h24.86v29.52a36.57,36.57,0,0,1-5.59,3.38,36.07,36.07,0,0,1-6.19,2.33,46.09,46.09,0,0,1-7,1.34,69.4,69.4,0,0,1-8,.43,36.65,36.65,0,0,1-14.21-2.71,34,34,0,0,1-18.79-18.82,36.84,36.84,0,0,1-2.71-14.23A38.74,38.74,0,0,1,289.93,321a32.36,32.36,0,0,1,7.42-11.3A33.65,33.65,0,0,1,309,302.35a42.18,42.18,0,0,1,15.29-2.64,44.58,44.58,0,0,1,8.21.72,40.4,40.4,0,0,1,7.08,2,32.59,32.59,0,0,1,5.93,3,32,32,0,0,1,4.8,3.74l-4.7,7.15a5.24,5.24,0,0,1-1.61,1.58,3.82,3.82,0,0,1-2,.58,5.61,5.61,0,0,1-3-1q-1.92-1.15-3.62-2a22.25,22.25,0,0,0-3.48-1.37,23,23,0,0,0-3.74-.77,36.93,36.93,0,0,0-4.42-.24,20.15,20.15,0,0,0-8.21,1.61,17.6,17.6,0,0,0-6.22,4.54,20.5,20.5,0,0,0-4,7,28.35,28.35,0,0,0-1.39,9.14A29.42,29.42,0,0,0,305.49,345.31Zm54.24,25.1V300.48h22.75A46.73,46.73,0,0,1,395.41,302a24.3,24.3,0,0,1,8.74,4.34,16.45,16.45,0,0,1,4.92,6.58,21.78,21.78,0,0,1,1.54,8.26,22.15,22.15,0,0,1-.91,6.43,19.46,19.46,0,0,1-2.71,5.59,21,21,0,0,1-4.42,4.58,23.44,23.44,0,0,1-6,3.31,15.34,15.34,0,0,1,3,2,12,12,0,0,1,2.47,2.93l14.88,24.34H402.25a6.23,6.23,0,0,1-5.86-3.07L384.78,347a4.89,4.89,0,0,0-1.8-1.92,6,6,0,0,0-2.9-.58H376v25.87Z"/></svg>