<svg xmlns="http://www.w3.org/2000/svg" viewBox="0 0 935.45 243.64"><defs><style>.a{fill:#fff;}</style></defs><title>oki</title><path class="a" d="M306.63,104.68A20,20,0,0,0,311,97.87a24.24,24.24,0,0,0,0-17.07,19.85,19.85,0,0,0-11.18-11.34,24.53,24.53,0,0,0-17.63,0A20.4,20.4,0,0,0,275.38,74a20,20,0,0,0-4.39,6.8,24.33,24.33,0,0,0,0,17.1,19.93,19.93,0,0,0,4.39,6.82,20.4,20.4,0,0,0,6.82,4.51,24.53,24.53,0,0,0,17.63,0A20.24,20.24,0,0,0,306.63,104.68ZM291,103.49a13.76,13.76,0,0,1-5.31-1,10.84,10.84,0,0,1-4-2.8,12.43,12.43,0,0,1-2.51-4.45,20.74,20.74,0,0,1,0-11.89,12.56,12.56,0,0,1,2.51-4.47,10.78,10.78,0,0,1,4-2.81,14.94,14.94,0,0,1,10.6,0,10.8,10.8,0,0,1,4,2.81,12.56,12.56,0,0,1,2.51,4.47,20.74,20.74,0,0,1,0,11.89,12.43,12.43,0,0,1-2.51,4.45,10.87,10.87,0,0,1-4,2.8A13.65,13.65,0,0,1,291,103.49Z"/><path class="a" d="M354.84,92a11.62,11.62,0,0,0,3.07-4.44,15.4,15.4,0,0,0,1-5.68,14.82,14.82,0,0,0-1-5.42,11.11,11.11,0,0,0-3-4.31,14.23,14.23,0,0,0-5.18-2.83,24.47,24.47,0,0,0-7.47-1H328.1v42.08h8.7V95.89h5.51a23.54,23.54,0,0,0,7.34-1A14.3,14.3,0,0,0,354.84,92Zm-12.53-2.75H336.8V74.9h5.51a11.13,11.13,0,0,1,3.51.49,6.51,6.51,0,0,1,2.45,1.41,5.69,5.69,0,0,1,1.45,2.2,8.15,8.15,0,0,1,.48,2.86,7.45,7.45,0,0,1-1.9,5.39Q346.4,89.22,342.31,89.22Z"/><polygon class="a" points="400.43 103.55 382.39 103.55 382.39 92.5 396.43 92.5 396.43 85.92 382.39 85.92 382.39 75.1 400.43 75.1 400.43 68.28 373.63 68.28 373.63 110.36 400.43 110.36 400.43 103.55"/><path class="a" d="M423.6,82.23l21,26.65a4.13,4.13,0,0,0,1.36,1.14,3.94,3.94,0,0,0,1.71.33h4.5V68.29h-7.69V92.36q0,.93.06,2t.17,2.15L423.57,69.65a5.86,5.86,0,0,0-.64-.7,2.75,2.75,0,0,0-.61-.42,2.07,2.07,0,0,0-.71-.2,8.61,8.61,0,0,0-.94,0h-4.58v42.08h7.68V86q0-.84,0-1.81T423.6,82.23Z"/><path class="a" d="M521.91,110.36h7.74L515.91,90.73A8.37,8.37,0,0,0,514.34,89a7.1,7.1,0,0,0-1.83-1.06,8.51,8.51,0,0,0,2.7-2.41l13.4-17.25h-7.54a5.52,5.52,0,0,0-2.2.39,4.19,4.19,0,0,0-1.65,1.41L506.57,84.32a3.55,3.55,0,0,1-3.1,1.33h-1.71V68.29h-8.7v42.08h8.7V92.12h2.44a5.38,5.38,0,0,1,2.12.33,3.17,3.17,0,0,1,1.3,1.12l10.82,15.14a4.71,4.71,0,0,0,.55.71,2.48,2.48,0,0,0,.7.51,4,4,0,0,0,.94.32A6.13,6.13,0,0,0,521.91,110.36Z"/><path class="a" d="M550.21,86q0-.84,0-1.81t-.13-2l21,26.65a4.13,4.13,0,0,0,1.36,1.14,3.94,3.94,0,0,0,1.71.33h4.5V68.29h-7.69V92.36q0,.93.06,2t.17,2.15L550,69.65a5.86,5.86,0,0,0-.64-.7,2.75,2.75,0,0,0-.61-.42,2.07,2.07,0,0,0-.71-.2,8.61,8.61,0,0,0-.94,0h-4.58v42.08h7.68Z"/><path class="a" d="M635.66,97.87a24.24,24.24,0,0,0,0-17.07,19.85,19.85,0,0,0-11.18-11.34,24.53,24.53,0,0,0-17.63,0A20.4,20.4,0,0,0,600,74a20,20,0,0,0-4.39,6.8,24.33,24.33,0,0,0,0,17.1,19.93,19.93,0,0,0,4.39,6.82,20.4,20.4,0,0,0,6.82,4.51,24.53,24.53,0,0,0,17.63,0,19.77,19.77,0,0,0,11.18-11.32Zm-8.22-2.6a12.43,12.43,0,0,1-2.51,4.45,10.87,10.87,0,0,1-4,2.8,14.94,14.94,0,0,1-10.6,0,10.84,10.84,0,0,1-4-2.8,12.43,12.43,0,0,1-2.51-4.45,20.74,20.74,0,0,1,0-11.89,12.56,12.56,0,0,1,2.51-4.47,10.78,10.78,0,0,1,4-2.81,14.94,14.94,0,0,1,10.6,0,10.8,10.8,0,0,1,4,2.81,12.56,12.56,0,0,1,2.51,4.47,20.74,20.74,0,0,1,0,11.89Z"/><path class="a" d="M695.33,110.36l13-42.08h-6.84a3.08,3.08,0,0,0-1.88.58,2.47,2.47,0,0,0-1,1.33l-6.52,23.72q-.23.93-.46,2t-.46,2.32q-.23-1.22-.54-2.32t-.62-2L682.48,70.2a3.26,3.26,0,0,0-1.06-1.38,3,3,0,0,0-1.84-.54H677a3,3,0,0,0-1.87.59,2.76,2.76,0,0,0-1,1.32l-7.6,23.72q-.35,1-.64,2.13t-.55,2.42q-.23-1.28-.48-2.41t-.48-2.15L657.89,70.2a2.38,2.38,0,0,0-1-1.39,3.3,3.3,0,0,0-1.9-.52h-7.31l13,42.08h7.89l8.7-27.52q.2-.58.39-1.28l.39-1.45q.17.75.36,1.45a11.49,11.49,0,0,0,.42,1.28l8.61,27.52Z"/><polygon class="a" points="747.24 103.29 730.97 103.29 730.97 68.28 722.27 68.28 722.27 110.36 747.24 110.36 747.24 103.29"/><polygon class="a" points="788.5 103.55 770.47 103.55 770.47 92.5 784.5 92.5 784.5 85.92 770.47 85.92 770.47 75.1 788.5 75.1 788.5 68.28 761.71 68.28 761.71 110.36 788.5 110.36 788.5 103.55"/><path class="a" d="M836,74.22a19.92,19.92,0,0,0-6.8-4.36,23.86,23.86,0,0,0-8.82-1.57H804.16v42.08h16.18a23.86,23.86,0,0,0,8.82-1.57,20,20,0,0,0,6.8-4.35,19.29,19.29,0,0,0,4.38-6.66,23.86,23.86,0,0,0,0-16.92A19.47,19.47,0,0,0,836,74.22Zm-3.87,21.07a12.67,12.67,0,0,1-2.49,4.48,10.66,10.66,0,0,1-4,2.81,13.67,13.67,0,0,1-5.29,1h-7.42V75.1h7.42a13.51,13.51,0,0,1,5.29,1,10.9,10.9,0,0,1,4,2.81,12.53,12.53,0,0,1,2.49,4.47,20.84,20.84,0,0,1,0,11.92Z"/><path class="a" d="M867.37,79a11.35,11.35,0,0,1,4-2.87,13.38,13.38,0,0,1,5.31-1,20.72,20.72,0,0,1,3.07.2,15,15,0,0,1,2.46.58,15.78,15.78,0,0,1,2.13.88q1,.51,2,1.15a2.76,2.76,0,0,0,2,.46A2.34,2.34,0,0,0,890,77.28l2.52-3.89a19.73,19.73,0,0,0-6.41-4,23.56,23.56,0,0,0-4.18-1.16,26.68,26.68,0,0,0-4.87-.42,24.86,24.86,0,0,0-9.12,1.59A20.21,20.21,0,0,0,861,73.85a19.42,19.42,0,0,0-4.42,6.79A23.49,23.49,0,0,0,855,89.31a22.39,22.39,0,0,0,1.62,8.61,19.77,19.77,0,0,0,4.61,6.82,21.14,21.14,0,0,0,7.19,4.48,26.1,26.1,0,0,0,9.4,1.61,26.77,26.77,0,0,0,7.7-1.09,22.55,22.55,0,0,0,6.86-3.44V88.93H877.94v4.84a1.5,1.5,0,0,0,.48,1.15,1.85,1.85,0,0,0,1.32.45h4.76v7.08a18.65,18.65,0,0,1-3.2,1.15A16.45,16.45,0,0,1,872,103a11.86,11.86,0,0,1-4.31-2.87,12.94,12.94,0,0,1-2.78-4.63,18.3,18.3,0,0,1-1-6.22,17.81,17.81,0,0,1,.9-5.83A12.83,12.83,0,0,1,867.37,79Z"/><polygon class="a" points="935.45 75.1 935.45 68.28 908.65 68.28 908.65 110.36 935.45 110.36 935.45 103.55 917.41 103.55 917.41 92.5 931.44 92.5 931.44 85.92 917.41 85.92 917.41 75.1 935.45 75.1"/><rect class="a" x="273.27" y="139.16" width="5.33" height="39.41"/><path class="a" d="M325.13,167.08q0,.63,0,1.31t.11,1.39l-22.82-29.7a2.75,2.75,0,0,0-.78-.73,2.39,2.39,0,0,0-1.06-.18h-2.75v39.41h4.67V150.5q0-.55,0-1.21t-.08-1.35l22.8,29.67a2.67,2.67,0,0,0,.84.74,2.29,2.29,0,0,0,1.06.22h2.7V139.16h-4.67Z"/><polygon class="a" points="344.11 143.65 356.9 143.65 356.9 178.57 362.23 178.57 362.23 143.65 374.96 143.65 374.96 139.16 344.11 139.16 344.11 143.65"/><polygon class="a" points="389.26 178.57 413.55 178.57 413.55 174.23 394.63 174.23 394.63 160.78 409.94 160.78 409.94 156.6 394.63 156.6 394.63 143.51 413.55 143.51 413.55 139.16 389.26 139.16 389.26 178.57"/><path class="a" d="M446.33,161.25a15.08,15.08,0,0,0,4.08-1.54,11.44,11.44,0,0,0,3.05-2.46,10.33,10.33,0,0,0,1.91-3.26,11.33,11.33,0,0,0,.66-3.91,11.53,11.53,0,0,0-.85-4.52,8.76,8.76,0,0,0-2.63-3.45,12.35,12.35,0,0,0-4.5-2.19,24.34,24.34,0,0,0-6.46-.76H430.46v39.41h5.31V162.13h4a3.67,3.67,0,0,1,1.65.29,3,3,0,0,1,1,.95l10.23,14.08a2.33,2.33,0,0,0,2.15,1.13h4.73l-11.49-15.65A5.64,5.64,0,0,0,446.33,161.25Zm-5-3h-5.58V143.37h5.83q4.59,0,6.92,1.79a6.28,6.28,0,0,1,2.32,5.31,8,8,0,0,1-.61,3.16,6.62,6.62,0,0,1-1.8,2.46,8.36,8.36,0,0,1-3,1.59A13.59,13.59,0,0,1,441.35,158.25Z"/><path class="a" d="M501.3,167.08q0,.63,0,1.31t.11,1.39l-22.82-29.7a2.75,2.75,0,0,0-.78-.73,2.39,2.39,0,0,0-1.06-.18H474v39.41h4.67V150.5q0-.55,0-1.21t-.08-1.35l22.8,29.67a2.67,2.67,0,0,0,.84.74,2.29,2.29,0,0,0,1.06.22H506V139.16H501.3Z"/><path class="a" d="M535.54,139.16l-15.76,39.41h4.13a1.75,1.75,0,0,0,1.15-.38,2.15,2.15,0,0,0,.66-.88l3.69-9.52h17.68l3.69,9.52a2.19,2.19,0,0,0,.66.91,1.77,1.77,0,0,0,1.15.36h4.13L541,139.16Zm-4.65,24.78,6.19-16q.28-.71.56-1.66t.59-2.08a29.93,29.93,0,0,0,1.18,3.71l6.19,16Z"/><polygon class="a" points="562.73 143.65 575.52 143.65 575.52 178.57 580.86 178.57 580.86 143.65 593.59 143.65 593.59 139.16 562.73 139.16 562.73 143.65"/><rect class="a" x="608.88" y="139.16" width="5.33" height="39.41"/><path class="a" d="M664.7,144.38a17.77,17.77,0,0,0-6.15-4.17,21.89,21.89,0,0,0-15.85,0,17.8,17.8,0,0,0-6.13,4.17,18.75,18.75,0,0,0-4,6.38,24.25,24.25,0,0,0,0,16.25,18.6,18.6,0,0,0,4,6.37,17.72,17.72,0,0,0,6.13,4.14,22.1,22.1,0,0,0,15.85,0,17.69,17.69,0,0,0,6.15-4.14,18.62,18.62,0,0,0,4-6.37,24.25,24.25,0,0,0,0-16.25A18.76,18.76,0,0,0,664.7,144.38Zm-1.1,21a13.81,13.81,0,0,1-2.8,4.87,12,12,0,0,1-4.4,3.05,16.19,16.19,0,0,1-11.52,0,12.14,12.14,0,0,1-4.41-3.05,13.69,13.69,0,0,1-2.82-4.87,21.9,21.9,0,0,1,0-13,13.66,13.66,0,0,1,2.82-4.88,12.29,12.29,0,0,1,4.41-3.07,16,16,0,0,1,11.52,0,12.17,12.17,0,0,1,4.4,3.07,13.78,13.78,0,0,1,2.8,4.88,21.9,21.9,0,0,1,0,13Z"/><path class="a" d="M713.32,167.08q0,.63,0,1.31t.11,1.39l-22.82-29.7a2.75,2.75,0,0,0-.78-.73,2.39,2.39,0,0,0-1.06-.18H686v39.41h4.67V150.5q0-.55,0-1.21t-.08-1.35l22.8,29.67a2.67,2.67,0,0,0,.84.74,2.29,2.29,0,0,0,1.06.22H718V139.16h-4.67Z"/><path class="a" d="M747.56,139.16,731.8,178.57h4.13a1.75,1.75,0,0,0,1.15-.38,2.15,2.15,0,0,0,.66-.88l3.69-9.52h17.68l3.69,9.52a2.19,2.19,0,0,0,.66.91,1.77,1.77,0,0,0,1.15.36h4.13L753,139.16Zm-4.65,24.78,6.19-16q.28-.71.56-1.66t.59-2.08a29.93,29.93,0,0,0,1.18,3.71l6.19,16Z"/><polygon class="a" points="787.74 139.16 782.4 139.16 782.4 178.57 804.78 178.57 804.78 174.09 787.74 174.09 787.74 139.16"/><rect class="a" x="165.76" y="30.99" width="64.66" height="7.81" transform="translate(51.6 172.72) rotate(-53.24)"/><rect class="a" x="157.97" y="35.47" width="31.15" height="7.81" transform="translate(60.94 177.17) rotate(-63.53)"/><rect class="a" x="135.66" y="20.7" width="48.97" height="7.81" transform="translate(91.88 171.55) rotate(-73.82)"/><rect class="a" x="125.36" y="25.98" width="31.14" height="7.81" transform="translate(96.69 166.99) rotate(-84.09)"/><rect class="a" x="119.82" y="10.34" width="7.81" height="34.89" transform="translate(-1.76 9.54) rotate(-4.38)"/><rect class="a" x="104.07" y="24.04" width="7.81" height="23.88" transform="translate(-5.59 28.51) rotate(-14.67)"/><rect class="a" x="90.29" y="37.1" width="7.81" height="16.01" transform="translate(-10.24 43.97) rotate(-24.96)"/><rect class="a" x="79.51" y="53.8" width="7.81" height="6.28" transform="translate(-17.57 58.53) rotate(-35.22)"/><rect class="a" x="61.29" y="46.91" width="7.81" height="25.67" transform="translate(-23.11 64.41) rotate(-45.52)"/><polygon class="a" points="67.51 76.54 39.16 57.1 34.77 63.56 63.12 83 67.51 76.54"/><rect class="a" x="45.55" y="78.52" width="7.81" height="19.52" transform="translate(-51.29 97.7) rotate(-66.08)"/><rect class="a" x="23.45" y="72.14" width="7.81" height="54.4" transform="translate(-75.63 102.53) rotate(-76.38)"/><rect class="a" x="28.05" y="98.94" width="7.81" height="39.51" transform="translate(-88.4 143.69) rotate(-86.66)"/><rect class="a" x="13.75" y="132.53" width="38.51" height="7.81" transform="translate(-16.27 5) rotate(-6.95)"/><rect class="a" x="46.35" y="145.47" width="8.95" height="7.81" transform="translate(-41.98 21.77) rotate(-17.24)"/><rect class="a" x="29.96" y="164.82" width="32.4" height="7.81" transform="translate(-72.75 40.43) rotate(-27.53)"/><rect class="a" x="36.96" y="180.05" width="34.93" height="7.81" transform="translate(-101.35 71.98) rotate(-37.81)"/><rect class="a" x="49.54" y="192.46" width="34.05" height="7.81" transform="translate(-124.04 114.75) rotate(-48.09)"/><rect class="a" x="77.38" y="195.02" width="15.72" height="7.81" transform="translate(-128.85 167.24) rotate(-58.39)"/><rect class="a" x="81.26" y="208.95" width="30.6" height="7.81" transform="translate(-136.84 225.33) rotate(-68.66)"/><rect class="a" x="99.09" y="212.46" width="28.08" height="7.81" transform="translate(-120.9 285.96) rotate(-78.96)"/><rect class="a" x="120.11" y="209.92" width="19.53" height="7.81" transform="translate(-85.68 340.82) rotate(-89.23)"/><rect class="a" x="143.45" y="202.72" width="7.81" height="37.77" transform="translate(-34.65 27.45) rotate(-9.53)"/><rect class="a" x="157.99" y="198.7" width="7.81" height="22.82" transform="translate(-61.62 67.29) rotate(-19.81)"/><polygon class="a" points="167.58 195.32 195.91 243.64 202.67 239.72 174.34 191.4 167.58 195.32"/><polygon class="a" points="189.75 186.87 185.44 182.44 179.79 187.84 184.11 192.27 189.75 186.87"/><rect class="a" x="198.44" y="170.36" width="7.81" height="25.18" transform="translate(-67.41 223.52) rotate(-50.67)"/><rect class="a" x="206.67" y="157.32" width="7.81" height="22.75" transform="translate(-39.13 270.9) rotate(-60.96)"/><rect class="a" x="207.32" y="146.69" width="7.81" height="10.15" transform="matrix(0.32, -0.95, 0.95, 0.32, -0.38, 303.01)"/><rect class="a" x="220.93" y="123.3" width="7.81" height="30.43" transform="translate(54.71 340.49) rotate(-81.53)"/><rect class="a" x="210.62" y="117.82" width="19.33" height="7.81" transform="translate(-3.72 6.99) rotate(-1.8)"/><rect class="a" x="208.63" y="101.41" width="24.43" height="7.81" transform="translate(-17.17 48.65) rotate(-12.1)"/><rect class="a" x="204.05" y="87.17" width="16.66" height="7.81" transform="translate(-18.68 87.75) rotate(-22.39)"/><rect class="a" x="194.26" y="64.61" width="48.45" height="7.81" transform="translate(-2.43 128.76) rotate(-32.66)"/><rect class="a" x="188.23" y="63.55" width="8.42" height="7.81" transform="translate(5.63 149.23) rotate(-42.96)"/><polygon class="a" points="161.96 86.56 158.96 84.05 156.91 86.48 159.91 88.99 160.51 88.29 161.96 86.56"/><rect class="a" x="144.39" y="84.06" width="11.88" height="3.9" transform="translate(6.36 182.29) rotate(-63.55)"/><rect class="a" x="140.41" y="78.83" width="6.86" height="3.9" transform="translate(26.2 196.45) rotate(-73.83)"/><rect class="a" x="129.66" y="79.73" width="11.81" height="3.91" transform="translate(40.39 208.14) rotate(-84.11)"/><rect class="a" x="125.85" y="75.67" width="3.91" height="10.9" transform="translate(-5.85 10.04) rotate(-4.4)"/><rect class="a" x="118.52" y="76.92" width="3.91" height="13.81" transform="translate(-17.3 33.23) rotate(-14.66)"/><rect class="a" x="111.89" y="79.37" width="3.91" height="16.07" transform="translate(-26.25 56.22) rotate(-24.97)"/><polygon class="a" points="101.25 85.65 113.16 102.67 116.35 100.42 104.44 83.39 101.25 85.65"/><rect class="a" x="98.99" y="88.2" width="3.91" height="13.43" transform="translate(-37.5 100.43) rotate(-45.52)"/><rect class="a" x="93.58" y="94.38" width="3.9" height="11.96" transform="translate(-41.17 122.97) rotate(-55.81)"/><rect class="a" x="91.41" y="100.1" width="3.91" height="15.42" transform="translate(-43.03 149.47) rotate(-66.09)"/><rect class="a" x="84.22" y="110.88" width="3.91" height="5.54" transform="translate(-44.58 170.64) rotate(-76.38)"/><rect class="a" x="85.1" y="117.1" width="3.9" height="9.76" transform="translate(-39.76 201.81) rotate(-86.68)"/><rect class="a" x="82.42" y="127.91" width="10.07" height="3.91" transform="translate(-15.06 11.52) rotate(-6.94)"/><polygon class="a" points="103.81 135.13 102.66 131.4 83.72 137.21 84.88 140.93 103.81 135.13"/><rect class="a" x="86.98" y="142.54" width="11.7" height="3.91" transform="translate(-56.31 59.33) rotate(-27.55)"/><rect class="a" x="91.22" y="149.24" width="11.08" height="3.91" transform="translate(-72.35 90.99) rotate(-37.79)"/><rect class="a" x="96.46" y="154.81" width="11.45" height="3.9" transform="translate(-82.73 128.08) rotate(-48.09)"/><rect class="a" x="101.58" y="157.5" width="16.05" height="3.91" transform="translate(-83.64 169.23) rotate(-58.39)"/><rect class="a" x="109.42" y="162.63" width="12.09" height="3.91" transform="translate(-79.83 212.29) rotate(-68.67)"/><rect class="a" x="116.37" y="164.24" width="13.19" height="3.91" transform="translate(-63.71 255.04) rotate(-78.95)"/><rect class="a" x="122.84" y="163.92" width="15.4" height="3.91" transform="translate(-37.03 294.21) rotate(-89.24)"/><rect class="a" x="136.42" y="162.88" width="3.9" height="10.09" transform="translate(-25.88 25.21) rotate(-9.53)"/><rect class="a" x="143.24" y="156.28" width="3.91" height="14.84" transform="matrix(0.94, -0.34, 0.34, 0.94, -46.94, 59)"/><rect class="a" x="152.8" y="163.53" width="3.91" height="3.69" transform="translate(-62.03 99.79) rotate(-30.07)"/><polygon class="a" points="164.34 160.64 150.39 144.29 147.41 146.82 161.37 163.17 164.34 160.64"/><rect class="a" x="161.86" y="144.65" width="3.9" height="13.45" transform="translate(-57.1 182.14) rotate(-50.67)"/><rect class="a" x="165.81" y="137.85" width="3.91" height="14.17" transform="translate(-40.4 221.2) rotate(-60.95)"/><polygon class="a" points="178.15 138.49 160.71 132.49 159.45 136.19 176.89 142.19 178.15 138.49"/><rect class="a" x="171.73" y="124.95" width="3.91" height="11.93" transform="translate(18.56 283.38) rotate(-81.51)"/><rect class="a" x="164.92" y="121.32" width="15.18" height="3.9" transform="translate(-3.78 5.47) rotate(-1.8)"/><rect class="a" x="165.37" y="113.8" width="13.83" height="3.91" transform="translate(-20.44 38.69) rotate(-12.1)"/><rect class="a" x="161.22" y="106.97" width="15.82" height="3.9" transform="translate(-28.72 72.54) rotate(-22.36)"/><rect class="a" x="166.05" y="98.02" width="6.88" height="3.91" transform="translate(-27.16 107.25) rotate(-32.65)"/><rect class="a" x="150.92" y="95.54" width="18.56" height="3.91" transform="translate(-23.52 135.1) rotate(-42.89)"/></svg>